<svg xmlns="http://www.w3.org/2000/svg" width="420" height="220" viewBox="0 0 420 220" fill="none">
  <g opacity="0.22" stroke="#ffffff" stroke-width="1.6">
    <circle cx="64" cy="72" r="22"/>
    <path d="M64 50l12 8-4 14H56l-4-14 12-8z" fill="none"/>
    <path d="M52 86l12-9 12 9M42 72h13M79 72h13"/>
  </g>

  <g opacity="0.2" stroke="#ffffff" stroke-width="1.7">
    <path d="M188 52h20v18a19 19 0 0 1-19 19h-1a19 19 0 0 1-19-19V52h19"/>
    <path d="M176 52v-6h24v6M170 58h-8a8 8 0 0 0 8 8M226 58h8a8 8 0 0 1-8 8"/>
    <path d="M180 102h16M174 110h28"/>
  </g>

  <g opacity="0.2" stroke="#ffffff" stroke-width="1.4">
    <circle cx="316" cy="66" r="3"/>
    <circle cx="327" cy="78" r="3"/>
    <circle cx="302" cy="80" r="3"/>
    <path d="M316 72l-9 6 4 10h10l4-10-9-6z"/>
  </g>

  <g opacity="0.18" fill="#ffffff" font-family="Arial, Helvetica, sans-serif">
    <text x="28" y="164" font-size="18" letter-spacing="1.2">FCW 2026</text>
    <text x="162" y="164" font-size="14" letter-spacing="2">WORLD CUP</text>
    <text x="284" y="164" font-size="14" letter-spacing="2">FANTASY</text>
  </g>

  <g opacity="0.1" stroke="#ffffff" stroke-width="1">
    <path d="M22 192h376"/>
  </g>
</svg>
